<?xml version="1.0" encoding="UTF-8" standalone="no"?>
<svg
   width="241.89101"
   height="217.82587"
   viewBox="0 0 64 57.632798"
   xml:space="preserve"
   version="1.1"
   id="svg1"
   sodipodi:docname="flag.svg"
   inkscape:version="1.2.2 (b0a8486541, 2022-12-01)"
   inkscape:export-filename="favicon.svg"
   inkscape:export-xdpi="19.049902"
   inkscape:export-ydpi="19.049902"
   xmlns:inkscape="http://www.inkscape.org/namespaces/inkscape"
   xmlns:sodipodi="http://sodipodi.sourceforge.net/DTD/sodipodi-0.dtd"
   xmlns="http://www.w3.org/2000/svg"
   xmlns:svg="http://www.w3.org/2000/svg"><defs
     id="defs1" /><sodipodi:namedview
     id="namedview1"
     pagecolor="#505050"
     bordercolor="#eeeeee"
     borderopacity="1"
     inkscape:showpageshadow="0"
     inkscape:pageopacity="0"
     inkscape:pagecheckerboard="0"
     inkscape:deskcolor="#d1d1d1"
     inkscape:zoom="2.3707521"
     inkscape:cx="80.354247"
     inkscape:cy="143.4144"
     inkscape:window-width="1920"
     inkscape:window-height="1131"
     inkscape:window-x="0"
     inkscape:window-y="0"
     inkscape:window-maximized="1"
     inkscape:current-layer="svg1"
     showgrid="false" /><path
     id="path3"
     style="display:inline;fill:none;stroke:#fdff00;stroke-width:2.59925;stroke-linecap:round;stroke-linejoin:round;stroke-miterlimit:0;stroke-dasharray:none;stroke-opacity:1;paint-order:markers stroke fill"
     d="m 33.834182,1.2996575 c -0.619153,0.012871 -1.238204,1.0397188 -1.762101,1.427086 -1.047117,0.9644932 -2.402394,1.5509798 -3.76889,1.8910137 -1.107498,0.2129195 -2.181482,-0.1985489 -3.2286,-0.487738 -1.685876,-0.2383427 -3.666141,0.7831129 -4.78953,1.1438048 -1.121797,0.3591029 -1.601253,1.5185938 -1.08961,2.484676 0.51323,0.9692586 0.773261,1.3814515 1.427908,2.542974 1.301349,2.330988 2.539519,4.602838 3.906016,6.994207 l 0.117424,0.205276 c -1.36173,1.356963 -2.114699,3.314374 -1.390137,5.211579 1.407809,3.66094 3.506813,7.015457 5.315038,10.490488 2.931612,5.338871 5.98983,10.608912 8.997713,15.904881 4.140801,7.293278 3.883813,5.3454 1.849959,-0.778411 -1.736723,-5.232411 -3.34458,-10.50571 -5.016155,-15.760366 2.488294,-2.415203 6.217188,-1.933868 9.320406,-1.350725 2.920489,0.567256 6.058612,0.584603 8.742348,-0.861343 3.146121,-1.530158 6.33529,-3.219659 8.821995,-5.720665 1.973476,-2.0132 1.619155,-5.140208 0.514836,-7.49344 -0.805598,-2.607466 0.03855,-5.711987 -1.62826,-8.0493326 -0.576788,-0.5847323 -1.233113,-0.78031 -1.913183,-0.7389973 -1.495201,0.095337 -3.102276,1.3413051 -4.208184,2.1135339 -2.696447,1.970297 -5.77518,3.608085 -9.091319,4.175339 -2.610642,0.354336 -5.107039,-0.62753 -7.573088,-1.294889 -4.016863,-0.621278 -7.95164,1.144245 -11.356758,3.092297 -0.19703,0.111227 -0.380658,0.245005 -0.566565,0.376888 l -0.0016,-0.0083 c -0.538713,-1.647688 -1.059786,-3.330355 -1.588907,-4.995575 0.994684,-0.964493 2.486044,-0.773865 3.727015,-0.540289 1.18059,0.235163 2.442339,0.223924 3.530769,-0.346509 C 32.594583,10.27729 34.00703,9.5174642 34.876184,8.1255448 35.438657,6.9926145 34.682782,5.7598395 34.67007,4.6062628 34.463506,3.5782115 35.014319,2.1482669 34.261159,1.4745533 34.120282,1.3479139 33.978287,1.296899 33.835823,1.2996575 h -8.2e-4 z M 16.076057,21.956296 c -1.940107,-0.108049 -3.009438,2.842555 -3.697454,4.039033 L 3.6822394,41.111125 c -2.6154118,4.547573 -3.20027924,6.515834 -1.1553009,10.469139 2.3834233,4.607953 3.0763187,4.875426 9.9231025,4.865892 l 17.419826,-0.02545 c 7.79062,-0.01112 6.684723,-2.177392 3.649829,-7.462238 L 20.617612,26.492922 c -1.898796,-3.305015 -3.376855,-4.471479 -4.541555,-4.536626 z" /></svg>
