<?xml version="1.0" encoding="UTF-8"?>
<svg width="241.89" height="241.89" version="1.1" viewBox="0 0 64 64" xml:space="preserve" xmlns="http://www.w3.org/2000/svg"><path d="m32.05 0a32.049 32 0 0 0-32.05 32 32.049 32 0 0 0 32.05 32 32.049 32 0 0 0 32.049-32 32.049 32 0 0 0-32.049-32zm16.608 16.865v5.17e-4c0.39941-0.00655 0.78417 0.12319 1.1245 0.46819 1.049 1.471 0.51723 3.4248 1.0242 5.0658 0.69499 1.481 0.91799 3.449-0.32401 4.716-1.565 1.574-3.5721 2.6373-5.5521 3.6003-1.689 0.91-3.664 0.89908-5.502 0.54208-1.953-0.36703-4.2998-0.66992-5.8658 0.85008 1.052 3.307 2.0639 6.6258 3.1569 9.9188 1.28 3.854 1.4417 5.0799-1.1643 0.48989-1.893-3.3333-3.8177-6.6502-5.6627-10.01-1.138-2.1869-2.459-4.2982-3.345-6.6022-0.45602-1.194 0.017882-2.4259 0.87488-3.2799l0.51418-0.43512 0.001033 0.005167c0.117-0.083 0.23257-0.16719 0.35657-0.23719 2.143-1.226 4.6194-2.3371 7.1474-1.9461 1.552 0.42 3.1231 1.0379 4.7661 0.81494 2.087-0.357 4.0246-1.3877 5.7216-2.6277 0.696-0.48595 1.7074-1.2702 2.6484-1.3302 0.02675-0.0016 0.053469-0.002664 0.080098-0.003101zm-26.742 8.5623c0.03709-0.0016 0.074494-0.001067 0.11265 0.001033 0.733 0.041 1.6632 0.77512 2.8582 2.8551l8.1199 14.139c1.91 3.326 2.606 4.6894-2.297 4.6964l-10.963 0.01602c-4.309 6e-3 -4.7451-0.16235-6.2451-3.0623-1.287-2.488-0.91891-3.7267 0.72709-6.5887l5.473-9.5131c0.4194-0.7295 1.0643-2.4952 2.2143-2.543z" fill="#bd1421" stroke-width=".21738"/><path d="m48.658 16.865c-0.02663 4.37e-4 -0.05335 0.0015-0.0801 0.0031-0.941 0.06-1.9524 0.84415-2.6484 1.3301-1.697 1.24-3.6346 2.2707-5.7216 2.6277-1.643 0.223-3.2141-0.39493-4.7661-0.81493-2.528-0.391-5.0043 0.72013-7.1473 1.9461-0.124 0.07-0.23956 0.15419-0.35656 0.23719l-1e-3 -0.0052-0.51418 0.43511c-0.857 0.854-1.3309 2.0859-0.87488 3.2799 0.886 2.304 2.207 4.4152 3.345 6.6021 1.845 3.36 3.7697 6.6767 5.6627 10.01 2.606 4.59 2.4443 3.3641 1.1643-0.48989-1.093-3.293-2.1049-6.6117-3.1569-9.9187 1.566-1.52 3.9128-1.2171 5.8658-0.85007 1.838 0.357 3.813 0.36792 5.502-0.54208 1.98-0.963 3.9871-2.0263 5.5521-3.6003 1.242-1.267 1.019-3.235 0.32401-4.716-0.507-1.641 0.02426-3.5948-1.0247-5.0658-0.34031-0.345-0.72459-0.47474-1.124-0.46819zm-26.742 8.5622c-1.15 0.04781-1.7949 1.8135-2.2143 2.543l-5.473 9.5131c-1.646 2.862-2.0141 4.1007-0.72708 6.5887 1.5 2.9 1.9361 3.0683 6.2451 3.0623l10.963-0.01602c4.903-7e-3 4.207-1.3703 2.297-4.6963l-8.1199-14.139c-1.195-2.08-2.1252-2.8141-2.8582-2.8551-0.03816-0.0021-0.07556-0.0026-0.11265-1e-3z" stroke-width=".32416"/></svg>
