<?xml version="1.0" encoding="UTF-8" standalone="no"?>
<svg
   width="241.89101"
   height="241.89101"
   viewBox="0 0 64 64"
   xml:space="preserve"
   version="1.1"
   id="svg1"
   sodipodi:docname="favicon.svg"
   inkscape:version="1.3.2 (9e3d6414e7, 2024-01-14, custom)"
   inkscape:export-filename="favicon.svg"
   inkscape:export-xdpi="19.049902"
   inkscape:export-ydpi="19.049902"
   xmlns:inkscape="http://www.inkscape.org/namespaces/inkscape"
   xmlns:sodipodi="http://sodipodi.sourceforge.net/DTD/sodipodi-0.dtd"
   xmlns="http://www.w3.org/2000/svg"
   xmlns:svg="http://www.w3.org/2000/svg"><defs
     id="defs1" /><sodipodi:namedview
     id="namedview1"
     pagecolor="#505050"
     bordercolor="#eeeeee"
     borderopacity="1"
     inkscape:showpageshadow="0"
     inkscape:pageopacity="0"
     inkscape:pagecheckerboard="0"
     inkscape:deskcolor="#d1d1d1"
     inkscape:zoom="2.3707521"
     inkscape:cx="106.71719"
     inkscape:cy="119.5823"
     inkscape:window-width="1920"
     inkscape:window-height="1011"
     inkscape:window-x="0"
     inkscape:window-y="32"
     inkscape:window-maximized="1"
     inkscape:current-layer="svg1" /><circle
     style="fill:#171717;stroke-width:1.32064;stroke-linecap:round;stroke-linejoin:round;stroke-miterlimit:0;paint-order:markers stroke fill"
     id="path3"
     cx="32"
     cy="32"
     r="32" /><path
     style="display:inline;fill:#bd1421;fill-opacity:1;stroke:none;stroke-width:0.846;stroke-linecap:round;stroke-linejoin:round;stroke-miterlimit:0;stroke-dasharray:none;stroke-opacity:1;paint-order:markers stroke fill"
     d="m 90.466,81.907 a 32,32 0 0 0 -32,32 32,32 0 0 0 32,32 32,32 0 0 0 32,-32 32,32 0 0 0 -32,-32 z m 1.205,14.873 c 0.09,-0.002 0.18,0.03 0.269,0.11 0.474,0.424 0.127,1.324 0.257,1.971 0.008,0.726 0.484,1.502 0.13,2.215 -0.547,0.876 -1.436,1.354 -2.356,1.763 -0.685,0.359 -1.479,0.366 -2.222,0.218 -0.781,-0.147 -1.72,-0.267 -2.346,0.34 0.333,1.048 0.661,2.107 1,3.144 l 10e-4,0.005 c 0.117,-0.083 0.233,-0.167 0.357,-0.237 2.143,-1.226 4.619,-2.337 7.147,-1.946 1.552,0.42 3.123,1.038 4.766,0.815 2.087,-0.357 4.025,-1.388 5.722,-2.628 0.696,-0.486 1.707,-1.27 2.648,-1.33 0.428,-0.026 0.841,0.097 1.204,0.465 1.049,1.471 0.518,3.425 1.025,5.066 0.695,1.481 0.918,3.449 -0.324,4.716 -1.565,1.574 -3.572,2.637 -5.552,3.6 -1.689,0.91 -3.664,0.899 -5.502,0.542 -1.953,-0.367 -4.3,-0.67 -5.866,0.85 1.052,3.307 2.064,6.626 3.157,9.919 1.28,3.854 1.442,5.08 -1.164,0.49 -1.893,-3.333 -3.818,-6.65 -5.663,-10.01 -1.138,-2.187 -2.459,-4.298 -3.345,-6.602 -0.456,-1.194 0.018,-2.426 0.875,-3.28 l -0.074,-0.129 c -0.86,-1.505 -1.639,-2.935 -2.458,-4.402 -0.412,-0.731 -0.576,-0.99 -0.899,-1.6 -0.322,-0.608 -0.02,-1.338 0.686,-1.564 0.707,-0.227 1.953,-0.87 3.014,-0.72 0.659,0.182 1.335,0.441 2.032,0.307 0.86,-0.214 1.713,-0.583 2.372,-1.19 0.33,-0.244 0.72,-0.891 1.11,-0.898 z m -11.176,13 c 0.733,0.041 1.663,0.775 2.858,2.855 l 8.12,14.139 c 1.91,3.326 2.606,4.689 -2.297,4.696 l -10.963,0.016 c -4.309,0.006 -4.745,-0.162 -6.245,-3.062 -1.287,-2.488 -0.919,-3.727 0.727,-6.589 l 5.473,-9.513 c 0.433,-0.753 1.106,-2.61 2.327,-2.542 z"
     transform="translate(-58.466,-81.907)"
     id="path1" /></svg>
