<svg width="241.891" height="241.891" viewBox="0 0 64 64" xml:space="preserve" xmlns="http://www.w3.org/2000/svg"><path style="fill:white;fill-opacity:1;stroke:none;stroke-width:.846;stroke-linecap:round;stroke-linejoin:round;stroke-miterlimit:0;stroke-dasharray:none;stroke-opacity:1;paint-order:markers stroke fill" d="M90.466 81.907a32 32 0 0 0-32 32 32 32 0 0 0 32 32 32 32 0 0 0 32-32 32 32 0 0 0-32-32zm1.205 14.873c.09-.002.18.03.269.11.474.424.127 1.324.257 1.971.008.726.484 1.502.13 2.215-.547.876-1.436 1.354-2.356 1.763-.685.359-1.479.366-2.222.218-.781-.147-1.72-.267-2.346.34.333 1.048.661 2.107 1 3.144l.001.005c.117-.083.233-.167.357-.237 2.143-1.226 4.619-2.337 7.147-1.946 1.552.42 3.123 1.038 4.766.815 2.087-.357 4.025-1.388 5.722-2.628.696-.486 1.707-1.27 2.648-1.33.428-.026.841.097 1.204.465 1.049 1.471.518 3.425 1.025 5.066.695 1.481.918 3.449-.324 4.716-1.565 1.574-3.572 2.637-5.552 3.6-1.689.91-3.664.899-5.502.542-1.953-.367-4.3-.67-5.866.85 1.052 3.307 2.064 6.626 3.157 9.919 1.28 3.854 1.442 5.08-1.164.49-1.893-3.333-3.818-6.65-5.663-10.01-1.138-2.187-2.459-4.298-3.345-6.602-.456-1.194.018-2.426.875-3.28l-.074-.129c-.86-1.505-1.639-2.935-2.458-4.402-.412-.731-.576-.99-.899-1.6-.322-.608-.02-1.338.686-1.564.707-.227 1.953-.87 3.014-.72.659.182 1.335.441 2.032.307.86-.214 1.713-.583 2.372-1.19.33-.244.72-.891 1.11-.898zm-11.176 13c.733.041 1.663.775 2.858 2.855l8.12 14.139c1.91 3.326 2.606 4.689-2.297 4.696l-10.963.016c-4.309.006-4.745-.162-6.245-3.062-1.287-2.488-.919-3.727.727-6.589l5.473-9.513c.433-.753 1.106-2.61 2.327-2.542z" transform="translate(-58.466 -81.907)"/></svg>