<?xml version="1.0" encoding="UTF-8" standalone="no"?>
<!-- Created with Inkscape (http://www.inkscape.org/) -->

<svg
   width="201.70058mm"
   height="280.31635mm"
   viewBox="0 0 201.70057 280.31635"
   version="1.1"
   id="svg21"
   inkscape:version="1.2.2 (b0a8486541, 2022-12-01)"
   sodipodi:docname="tree.svg"
   xmlns:inkscape="http://www.inkscape.org/namespaces/inkscape"
   xmlns:sodipodi="http://sodipodi.sourceforge.net/DTD/sodipodi-0.dtd"
   xmlns="http://www.w3.org/2000/svg"
   xmlns:svg="http://www.w3.org/2000/svg">
  <sodipodi:namedview
     id="namedview23"
     pagecolor="#ffffff"
     bordercolor="#000000"
     borderopacity="0.25"
     inkscape:showpageshadow="2"
     inkscape:pageopacity="0.0"
     inkscape:pagecheckerboard="0"
     inkscape:deskcolor="#d1d1d1"
     inkscape:document-units="mm"
     showgrid="false"
     inkscape:zoom="0.5946522"
     inkscape:cx="458.25106"
     inkscape:cy="728.15672"
     inkscape:window-width="1920"
     inkscape:window-height="1131"
     inkscape:window-x="0"
     inkscape:window-y="0"
     inkscape:window-maximized="1"
     inkscape:current-layer="layer1" />
  <defs
     id="defs18">
    <filter
       inkscape:collect="always"
       style="color-interpolation-filters:sRGB"
       id="filter2077"
       x="-0.079551309"
       y="-0.054997442"
       width="1.1591026"
       height="1.1099949">
      <feGaussianBlur
         inkscape:collect="always"
         stdDeviation="4.1094391"
         id="feGaussianBlur2079" />
    </filter>
  </defs>
  <g
     inkscape:label="Layer 1"
     inkscape:groupmode="layer"
     id="layer1"
     transform="translate(318.34546,160.4352)">
    <path
       id="path2026"
       d="m -233.4761,-143.57254 -3.56309,6.15725 v 4.91236 h 0.86507 l 3.59719,-6.19187 v -4.87774 z m 15.56598,0 v 4.87774 l 3.59771,6.19187 h 0.86455 v -4.91236 l -3.56309,-6.15725 z m -24.62899,15.70447 -3.59719,6.19187 v 4.87722 h 0.89917 l 3.56309,-6.15725 v -4.91184 z m 33.72663,0 v 4.91184 l 3.56257,6.15725 h 0.89969 v -4.87722 l -3.59772,-6.19187 z m -73.09167,27.53475 -3.56257,6.157249 v 4.911844 h 0.86455 l 3.59771,-6.19187 v -4.877223 z m 15.56598,0 v 4.877223 l 3.59771,6.19187 h 0.86455 v -4.911844 l -3.56258,-6.157249 z m 68.56015,0 -3.56309,6.157249 v 4.911844 h 0.86507 l 3.59719,-6.19187 v -4.877223 z m 35.14463,0 -3.56309,6.157249 v 4.911844 h 0.86506 l 3.5972,-6.19187 v -4.877223 z m 15.56597,0 v 4.877223 l 3.59772,6.19187 h 0.86454 v -4.911844 l -3.56309,-6.157249 z m -143.89974,15.704469 -3.5972,6.191871 v 4.877221 h 0.89917 l 3.56309,-6.157247 v -4.911845 z m 33.72662,0 v 4.911845 l 3.56309,6.157247 h 0.89917 v -4.877221 l -3.59719,-6.191871 z m 50.39951,0 -3.59771,6.191871 v 4.877221 h 0.89968 l 3.56258,-6.157247 v -4.911845 z m 35.14463,0 -3.5972,6.191871 v 4.877221 h 0.89917 l 3.56309,-6.157247 v -4.911845 z m 33.72662,0 v 4.911845 l 3.56257,6.157247 h 0.89969 v -4.877221 l -3.59771,-6.191871 z m -150.85229,27.534754 -3.56309,6.15673 v 4.912362 h 0.86455 l 3.59771,-6.191871 v -4.877221 z m 35.14462,0 -3.56309,6.15673 v 4.912362 h 0.86507 l 3.59719,-6.191871 v -4.877221 z m 15.56598,0 v 4.877221 l 3.5972,6.191871 h 0.86506 v -4.912362 l -3.56309,-6.15673 z m 68.55964,0 -3.56258,6.15673 v 4.912362 h 0.86455 l 3.59771,-6.191871 v -4.877221 z m -128.33325,15.703951 -3.59772,6.19187 v 4.877738 h 0.89969 l 3.56257,-6.157247 v -4.912361 z m 35.14462,0 -3.59771,6.19187 v 4.877738 h 0.89968 l 3.56258,-6.157247 v -4.912361 z m 33.72662,0 v 4.912361 l 3.56258,6.157247 h 0.89968 v -4.877738 l -3.59771,-6.19187 z m 50.399,0 -3.5972,6.19187 v 4.877738 h 0.89917 l 3.56309,-6.157247 v -4.912361 z m -95.19471,27.534753 v 4.8772219 l 3.5972,6.1918701 h 0.86506 v -4.9118449 l -3.56309,-6.1572471 z m 55.89943,0 v 4.8772219 l 3.59771,6.1918701 h 0.86455 v -4.9118449 l -3.56309,-6.1572471 z m -46.80179,15.704468 v 4.9118449 l 3.56257,6.1572471 h 0.89969 V 8.0409451 l -3.59772,-6.1918701 z m 55.89943,0 v 4.9118449 l 3.56257,6.1572471 h 0.89969 V 8.0409451 l -3.59772,-6.1918701 z m -78.83344,27.534753 v 4.877222 l 3.5972,6.19187 h 0.86506 v -4.911845 l -3.56309,-6.157247 z m 82.39601,0 -3.56257,6.157247 v 4.911845 h 0.86454 l 3.59772,-6.19187 v -4.877222 z m 15.56597,0 v 4.877222 l 3.59772,6.19187 h 0.86454 v -4.911845 l -3.56257,-6.157247 z m -88.86486,15.704468 v 4.911845 l 3.56309,6.157247 h 0.89917 V 51.27965 l -3.59719,-6.191354 z m 64.23639,0 -3.59771,6.191354 v 4.877738 h 0.89917 l 3.56309,-6.157247 v -4.911845 z m 33.72611,0 v 4.911845 l 3.56309,6.157247 h 0.89917 V 51.27965 l -3.5972,-6.191354 z m -94.39941,27.534237 -3.56309,6.157247 v 4.911845 h 0.86507 l 3.59719,-6.191354 v -4.877738 z m 15.56598,0 v 4.877738 l 3.59771,6.191354 h 0.86455 V 78.77978 l -3.56309,-6.157247 z m 68.55964,0 -3.56258,6.157247 v 4.911845 h 0.86455 l 3.59771,-6.191354 v -4.877738 z m 15.56649,0 v 4.877738 l 3.5972,6.191354 h 0.86506 V 78.77978 l -3.56309,-6.157247 z m -108.75512,15.704468 -3.5972,6.19187 v 4.877221 h 0.89917 l 3.56309,-6.157246 v -4.911845 z m 33.72662,0 v 4.911845 l 3.56258,6.157246 h 0.89968 v -4.877221 l -3.59771,-6.19187 z m 50.39951,0 -3.59771,6.19187 v 4.877221 h 0.89969 l 3.56257,-6.157246 v -4.911845 z m 33.72611,0 v 4.911845 l 3.56309,6.157246 h 0.89917 v -4.877221 l -3.5972,-6.19187 z"
       style="font-size:34.5912px;font-family:'DSEG14 Classic';-inkscape-font-specification:'DSEG14 Classic, Normal';opacity:0.75;mix-blend-mode:normal;fill:none;stroke:#00fdb4;stroke-width:7;stroke-dasharray:none;filter:url(#filter2077)" />
    <path
       id="path2075"
       d="m -233.4761,-143.57254 -3.56309,6.15725 v 4.91236 h 0.86507 l 3.59719,-6.19187 v -4.87774 z m 15.56598,0 v 4.87774 l 3.59771,6.19187 h 0.86455 v -4.91236 l -3.56309,-6.15725 z m -24.62899,15.70447 -3.59719,6.19187 v 4.87722 h 0.89917 l 3.56309,-6.15725 v -4.91184 z m 33.72663,0 v 4.91184 l 3.56257,6.15725 h 0.89969 v -4.87722 l -3.59772,-6.19187 z m -73.09167,27.53475 -3.56257,6.157249 v 4.911844 h 0.86455 l 3.59771,-6.19187 v -4.877223 z m 15.56598,0 v 4.877223 l 3.59771,6.19187 h 0.86455 v -4.911844 l -3.56258,-6.157249 z m 68.56015,0 -3.56309,6.157249 v 4.911844 h 0.86507 l 3.59719,-6.19187 v -4.877223 z m 35.14463,0 -3.56309,6.157249 v 4.911844 h 0.86506 l 3.5972,-6.19187 v -4.877223 z m 15.56597,0 v 4.877223 l 3.59772,6.19187 h 0.86454 v -4.911844 l -3.56309,-6.157249 z m -143.89974,15.704469 -3.5972,6.191871 v 4.877221 h 0.89917 l 3.56309,-6.157247 v -4.911845 z m 33.72662,0 v 4.911845 l 3.56309,6.157247 h 0.89917 v -4.877221 l -3.59719,-6.191871 z m 50.39951,0 -3.59771,6.191871 v 4.877221 h 0.89968 l 3.56258,-6.157247 v -4.911845 z m 35.14463,0 -3.5972,6.191871 v 4.877221 h 0.89917 l 3.56309,-6.157247 v -4.911845 z m 33.72662,0 v 4.911845 l 3.56257,6.157247 h 0.89969 v -4.877221 l -3.59771,-6.191871 z m -150.85229,27.534754 -3.56309,6.15673 v 4.912362 h 0.86455 l 3.59771,-6.191871 v -4.877221 z m 35.14462,0 -3.56309,6.15673 v 4.912362 h 0.86507 l 3.59719,-6.191871 v -4.877221 z m 15.56598,0 v 4.877221 l 3.5972,6.191871 h 0.86506 v -4.912362 l -3.56309,-6.15673 z m 68.55964,0 -3.56258,6.15673 v 4.912362 h 0.86455 l 3.59771,-6.191871 v -4.877221 z m -128.33325,15.703951 -3.59772,6.19187 v 4.877738 h 0.89969 l 3.56257,-6.157247 v -4.912361 z m 35.14462,0 -3.59771,6.19187 v 4.877738 h 0.89968 l 3.56258,-6.157247 v -4.912361 z m 33.72662,0 v 4.912361 l 3.56258,6.157247 h 0.89968 v -4.877738 l -3.59771,-6.19187 z m 50.399,0 -3.5972,6.19187 v 4.877738 h 0.89917 l 3.56309,-6.157247 v -4.912361 z m -95.19471,27.534753 v 4.8772219 l 3.5972,6.1918701 h 0.86506 v -4.9118449 l -3.56309,-6.1572471 z m 55.89943,0 v 4.8772219 l 3.59771,6.1918701 h 0.86455 v -4.9118449 l -3.56309,-6.1572471 z m -46.80179,15.704468 v 4.9118449 l 3.56257,6.1572471 h 0.89969 V 8.0409451 l -3.59772,-6.1918701 z m 55.89943,0 v 4.9118449 l 3.56257,6.1572471 h 0.89969 V 8.0409451 l -3.59772,-6.1918701 z m -78.83344,27.534753 v 4.877222 l 3.5972,6.19187 h 0.86506 v -4.911845 l -3.56309,-6.157247 z m 82.39601,0 -3.56257,6.157247 v 4.911845 h 0.86454 l 3.59772,-6.19187 v -4.877222 z m 15.56597,0 v 4.877222 l 3.59772,6.19187 h 0.86454 v -4.911845 l -3.56257,-6.157247 z m -88.86486,15.704468 v 4.911845 l 3.56309,6.157247 h 0.89917 V 51.27965 l -3.59719,-6.191354 z m 64.23639,0 -3.59771,6.191354 v 4.877738 h 0.89917 l 3.56309,-6.157247 v -4.911845 z m 33.72611,0 v 4.911845 l 3.56309,6.157247 h 0.89917 V 51.27965 l -3.5972,-6.191354 z m -94.39941,27.534237 -3.56309,6.157247 v 4.911845 h 0.86507 l 3.59719,-6.191354 v -4.877738 z m 15.56598,0 v 4.877738 l 3.59771,6.191354 h 0.86455 V 78.77978 l -3.56309,-6.157247 z m 68.55964,0 -3.56258,6.157247 v 4.911845 h 0.86455 l 3.59771,-6.191354 v -4.877738 z m 15.56649,0 v 4.877738 l 3.5972,6.191354 h 0.86506 V 78.77978 l -3.56309,-6.157247 z m -108.75512,15.704468 -3.5972,6.19187 v 4.877221 h 0.89917 l 3.56309,-6.157246 v -4.911845 z m 33.72662,0 v 4.911845 l 3.56258,6.157246 h 0.89968 v -4.877221 l -3.59771,-6.19187 z m 50.39951,0 -3.59771,6.19187 v 4.877221 h 0.89969 l 3.56257,-6.157246 v -4.911845 z m 33.72611,0 v 4.911845 l 3.56309,6.157246 h 0.89917 v -4.877221 l -3.5972,-6.19187 z"
       style="font-size:34.5912px;font-family:'DSEG14 Classic';-inkscape-font-specification:'DSEG14 Classic, Normal';fill:none;stroke:#00fdb4;stroke-width:3.60326" />
  </g>
</svg>
